<svg xmlns="http://www.w3.org/2000/svg" viewBox="0 0 1442.25 902.47"><defs><style>.cls-1,.cls-6{fill:#172b43;}.cls-2{fill:#df60cb;}.cls-3{fill:#fff;}.cls-4{fill:#00cd66;}.cls-5{fill:#7ebaf9;}.cls-6{opacity:0.7;}</style></defs><title>Ресурс 6</title><g id="Слой_2" data-name="Слой 2"><g id="Capa_1" data-name="Capa 1"><rect class="cls-1" y="1.17" width="1440" height="900.79"/><rect class="cls-2" x="838.21" y="0.67" width="120.36" height="124.76" transform="translate(1796.78 126.1) rotate(180)"/><rect class="cls-3" x="1201.56" y="0.47" width="238.44" height="124.96" transform="translate(2641.56 125.9) rotate(180)"/><rect class="cls-4" x="958.57" y="382.17" width="238.44" height="124.96" transform="translate(2155.58 889.3) rotate(180)"/><path class="cls-3" d="M843.86,520.77A121.51,121.51,0,0,0,722.4,641.18H965.32A121.51,121.51,0,0,0,843.86,520.77Z"/><polygon class="cls-5" points="958.57 382.17 722.4 382.17 722.4 125.43 958.57 382.17"/><rect class="cls-2" x="840.48" y="641.18" width="124.84" height="261.28" transform="translate(1805.81 1543.65) rotate(180)"/><path class="cls-3" d="M370.84,253.8A128.35,128.35,0,0,0,243.71,125.43V382.17A128.35,128.35,0,0,0,370.84,253.8Z"/><path class="cls-3" d="M364.36,760.8A120.7,120.7,0,0,0,485,641.18H243.71A120.7,120.7,0,0,0,364.36,760.8Z"/><polygon class="cls-5" points="243.24 641.18 1.32 641.18 1.32 382.17 243.24 641.18"/><rect class="cls-2" x="1.32" y="125.43" width="124.84" height="256.74"/><rect class="cls-5" x="0.25" y="782.05" width="244.06" height="120.42"/><rect class="cls-2" x="486.25" y="125.43" width="236.17" height="124.96" transform="translate(1208.67 375.82) rotate(180)"/><rect class="cls-2" x="126.22" y="1.67" width="117.49" height="123.76"/><rect class="cls-2" x="243.71" y="520.77" width="241.32" height="120.42" transform="translate(728.73 1161.95) rotate(180)"/><path class="cls-5" d="M1203.26,901.85v.62h1.14A129.47,129.47,0,0,0,1333.84,773v-2.27a129.47,129.47,0,0,0-129.44-129.51h-239Z"/><path class="cls-2" d="M1197.59,383.35H1197v-1.06a120.47,120.47,0,0,1,120.44-120.5h2.11A120.47,120.47,0,0,1,1440,382.29V645.73Z"/><path class="cls-5" d="M958.57,126.57v1.06A120.47,120.47,0,0,0,1079,248.12h2.11a120.47,120.47,0,0,0,120.44-120.5v-1.06H1201l-1-1.09H958.57Z"/><polygon class="cls-5" points="484.16 382.17 722.42 382.17 722.42 641.18 484.16 382.17"/><polygon class="cls-4" points="484.13 641.18 722.4 641.18 722.4 902.47 484.13 641.18"/><path class="cls-3" d="M591.1,1.67A132.9,132.9,0,0,0,722.42,125.43V1.67Z"/><rect class="cls-6" x="2.25" width="1440" height="900.79"/></g></g></svg>