<svg xmlns="http://www.w3.org/2000/svg" viewBox="0 0 22.5 18.83"><defs><style>.cls-1{fill:#8392a5;stroke:#fff;stroke-miterlimit:10;stroke-width:0.5px;}</style></defs><title>Ресурс 13</title><g id="Слой_2" data-name="Слой 2"><g id="Capa_1" data-name="Capa 1"><g id="_16-bath" data-name=" 16-bath"><path class="cls-1" d="M22.25,7.58H3V3A.92.92,0,1,1,4.85,3V4.83h1.8V3a2.75,2.75,0,1,0-5.5,0V7.58H.25V9.43h.9v3.66a4.59,4.59,0,0,0,4.6,4.58v.92H7.6v-.9h7.35v.9h1.8v-.92a4.6,4.6,0,0,0,4.6-4.58V9.43h.9ZM19.5,13.09a2.75,2.75,0,0,1-2.75,2.74h-11A2.75,2.75,0,0,1,3,13.09V9.43H19.5Z"/></g></g></g></svg>