<svg xmlns="http://www.w3.org/2000/svg" viewBox="0 0 18 18.34"><defs><style>.cls-1{fill:#4285f4;}.cls-2{fill:#34a853;}.cls-3{fill:#fbbc04;}.cls-4{fill:#ea4335;}</style></defs><title>Ресурс 3</title><g id="Слой_2" data-name="Слой 2"><g id="Capa_1" data-name="Capa 1"><path class="cls-1" d="M18,9.36a10.8,10.8,0,0,0-.16-1.87H9.17V11h5a4.25,4.25,0,0,1-1.84,2.79v2.29h3A9,9,0,0,0,18,9.36Z"/><path class="cls-2" d="M9.18,18.34a8.77,8.77,0,0,0,6.08-2.21l-3-2.29A5.56,5.56,0,0,1,4,10.93H1v2.36A9.17,9.17,0,0,0,9.18,18.34Z"/><path class="cls-3" d="M4,10.94A5.49,5.49,0,0,1,4,7.43V5.07H1A9.17,9.17,0,0,0,1,13.3Z"/><path class="cls-4" d="M9.18,3.63A5,5,0,0,1,12.69,5h0l2.62-2.62A8.81,8.81,0,0,0,9.18,0,9.16,9.16,0,0,0,1,5.05L4,7.41A5.48,5.48,0,0,1,9.18,3.63Z"/></g></g></svg>