<svg xmlns="http://www.w3.org/2000/svg" viewBox="0 0 22 18.05"><defs><style>.cls-1{fill:#8392a5;}</style></defs><title>Ресурс 12</title><g id="Слой_2" data-name="Слой 2"><g id="Capa_1" data-name="Capa 1"><path class="cls-1" d="M20.71,7.85V1.93A1.93,1.93,0,0,0,18.78,0H3.22A1.93,1.93,0,0,0,1.29,1.93V7.85A1.94,1.94,0,0,0,0,9.67V17.4A.64.64,0,0,0,.64,18H3.22a.64.64,0,0,0,.64-.64V15.47H18.13V17.4a.64.64,0,0,0,.64.64h2.58A.64.64,0,0,0,22,17.4V9.67A1.94,1.94,0,0,0,20.71,7.85ZM2.58,1.93a.64.64,0,0,1,.64-.64H18.78a.64.64,0,0,1,.64.64v5.8H18a1.92,1.92,0,0,0,.11-.64V5.8A1.93,1.93,0,0,0,16.2,3.87H13.58A1.93,1.93,0,0,0,11.64,5.8V7.09a1.93,1.93,0,0,0,.11.64H10.24a1.92,1.92,0,0,0,.11-.64V5.8A1.93,1.93,0,0,0,8.42,3.87H5.8A1.93,1.93,0,0,0,3.87,5.8V7.09A1.93,1.93,0,0,0,4,7.73H2.58ZM16.84,5.8V7.09a.64.64,0,0,1-.64.64H13.58a.64.64,0,0,1-.64-.64V5.8a.64.64,0,0,1,.64-.64H16.2A.64.64,0,0,1,16.84,5.8Zm-7.78,0V7.09a.64.64,0,0,1-.64.64H5.8a.64.64,0,0,1-.64-.64V5.8a.64.64,0,0,1,.64-.64H8.42A.64.64,0,0,1,9.07,5.8Zm11.64,11H19.42V14.82a.64.64,0,0,0-.64-.64H3.22a.64.64,0,0,0-.64.64v1.93H1.29V9.67A.64.64,0,0,1,1.93,9H20.07a.64.64,0,0,1,.64.64Z"/></g></g></svg>