<svg xmlns="http://www.w3.org/2000/svg" xmlns:xlink="http://www.w3.org/1999/xlink" viewBox="0 0 158.96 30"><defs><style>.cls-1{fill:#213e69;}.cls-2{fill:url(#Degradado_sin_nombre_120);}.cls-16,.cls-3,.cls-4,.cls-5,.cls-6,.cls-7{opacity:0.65;}.cls-3{fill:url(#Degradado_sin_nombre_107);}.cls-4{fill:url(#Degradado_sin_nombre_107-2);}.cls-5{fill:url(#Degradado_sin_nombre_107-3);}.cls-6{fill:url(#Degradado_sin_nombre_107-4);}.cls-7{fill:url(#Degradado_sin_nombre_107-5);}.cls-8{fill:url(#Degradado_sin_nombre_136);}.cls-9{fill:url(#Degradado_sin_nombre_136-2);}.cls-10{fill:url(#Degradado_sin_nombre_136-3);}.cls-11{fill:url(#Degradado_sin_nombre_136-4);}.cls-12{fill:url(#Degradado_sin_nombre_136-5);}.cls-13{fill:url(#Degradado_sin_nombre_136-6);}.cls-14{fill:url(#Degradado_sin_nombre_136-7);}.cls-15{fill:url(#Degradado_sin_nombre_136-8);}.cls-16{fill:url(#Degradado_sin_nombre_107-6);}</style><linearGradient id="Degradado_sin_nombre_120" x1="15.34" y1="55.84" x2="15.34" y2="-4.85" gradientUnits="userSpaceOnUse"><stop offset="0" stop-color="#12bcff"/><stop offset="1" stop-color="#0053ff"/></linearGradient><linearGradient id="Degradado_sin_nombre_107" x1="4.65" y1="-2.33" x2="0.91" y2="26.78" gradientUnits="userSpaceOnUse"><stop offset="0" stop-color="#010036"/><stop offset="1" stop-color="#010036" stop-opacity="0"/></linearGradient><linearGradient id="Degradado_sin_nombre_107-2" x1="-20.27" y1="14.34" x2="23.36" y2="31.93" gradientTransform="translate(42.51 14.66) rotate(90)" xlink:href="#Degradado_sin_nombre_107"/><linearGradient id="Degradado_sin_nombre_107-3" x1="16.46" y1="42.67" x2="32.03" y2="13.11" gradientTransform="translate(58.54 38.83) rotate(-180)" xlink:href="#Degradado_sin_nombre_107"/><linearGradient id="Degradado_sin_nombre_107-4" x1="43.13" y1="25.28" x2="17.39" y2="1.61" xlink:href="#Degradado_sin_nombre_107"/><linearGradient id="Degradado_sin_nombre_107-5" x1="29.42" y1="-1.52" x2="3.78" y2="7.4" xlink:href="#Degradado_sin_nombre_107"/><linearGradient id="Degradado_sin_nombre_136" x1="14.41" y1="21.45" x2="22.04" y2="16.1" gradientUnits="userSpaceOnUse"><stop offset="0" stop-color="#0df"/><stop offset="0.53" stop-color="#0bf"/><stop offset="1" stop-color="#07f"/></linearGradient><linearGradient id="Degradado_sin_nombre_136-2" x1="14.53" y1="21.63" x2="23.51" y2="15.34" xlink:href="#Degradado_sin_nombre_136"/><linearGradient id="Degradado_sin_nombre_136-3" x1="14.93" y1="22.19" x2="23.91" y2="15.9" xlink:href="#Degradado_sin_nombre_136"/><linearGradient id="Degradado_sin_nombre_136-4" x1="24.97" y1="17.67" x2="25.7" y2="17.16" xlink:href="#Degradado_sin_nombre_136"/><linearGradient id="Degradado_sin_nombre_136-5" x1="14.4" y1="21.44" x2="23.38" y2="15.15" xlink:href="#Degradado_sin_nombre_136"/><linearGradient id="Degradado_sin_nombre_136-6" x1="14.44" y1="21.49" x2="23.42" y2="15.21" xlink:href="#Degradado_sin_nombre_136"/><linearGradient id="Degradado_sin_nombre_136-7" x1="14.75" y1="21.94" x2="23.74" y2="15.66" xlink:href="#Degradado_sin_nombre_136"/><linearGradient id="Degradado_sin_nombre_136-8" x1="13.87" y1="20.67" x2="22.85" y2="14.39" xlink:href="#Degradado_sin_nombre_136"/><linearGradient id="Degradado_sin_nombre_107-6" x1="22.71" y1="8.17" x2="23.04" y2="18.92" xlink:href="#Degradado_sin_nombre_107"/></defs><title>Ресурс 1</title><g id="Слой_2" data-name="Слой 2"><g id="Capa_1" data-name="Capa 1"><path class="cls-1" d="M51.34,26.29l0-7.14-8.2,0,0,7.14-4.09,0,.07-18.1,4.09,0,0,7.55,8.2,0,0-7.55,4.09,0-.07,18.1Z"/><path class="cls-1" d="M71.76,20.63l-10,0a3.56,3.56,0,0,0,3.58,2.81,4.93,4.93,0,0,0,3.52-1.46L71,24.06a7.76,7.76,0,0,1-6,2.43c-4.45,0-7.26-2.87-7.24-7.09A6.78,6.78,0,0,1,65,12.3C69.85,12.32,72.12,15.56,71.76,20.63ZM68,18.26a2.91,2.91,0,0,0-3.07-3,3.26,3.26,0,0,0-3.27,3Z"/><path class="cls-1" d="M74.12,26.38l.07-19.19h4L78.1,26.39Z"/><path class="cls-1" d="M81.82,26.4l.07-19.19h4l-.07,19.19Z"/><path class="cls-1" d="M103.16,19.53c0,4.24-3,7.1-7.48,7.09s-7.46-2.9-7.45-7.14,3-7.08,7.5-7.06S103.18,15.26,103.16,19.53Zm-10.91,0c0,2.28,1.38,3.83,3.45,3.84s3.47-1.54,3.48-3.82-1.41-3.83-3.45-3.84S92.25,17.26,92.25,19.54Z"/><path class="cls-1" d="M119,10.22l-1.59,3.38a12.62,12.62,0,0,0-5.63-1.88c-1.37,0-2.3.48-2.31,1.47,0,3.34,9.64,1.51,9.59,8,0,3.54-3.1,5.45-7.11,5.43a12.71,12.71,0,0,1-8-2.9l1.64-3.33a10.72,10.72,0,0,0,6.4,2.74c1.68,0,2.69-.61,2.7-1.72,0-3.41-9.64-1.46-9.62-7.87,0-3.28,2.84-5.34,7-5.33A12.94,12.94,0,0,1,119,10.22Z"/><path class="cls-1" d="M135.23,19.65c0,4.24-3,7.1-7.48,7.09s-7.46-2.9-7.45-7.14,3-7.08,7.5-7.06S135.24,15.38,135.23,19.65Zm-10.91,0c0,2.28,1.38,3.83,3.45,3.84s3.47-1.54,3.48-3.82-1.41-3.83-3.45-3.84S124.32,17.38,124.31,19.66Z"/><path class="cls-1" d="M137.58,26.61l.07-19.19h4l-.07,19.19Z"/><path class="cls-1" d="M158.89,26.69h-4v-2a5.08,5.08,0,0,1-4.4,2.18c-4,0-6.56-2.9-6.54-7.19s2.61-7.05,6.49-7A5.24,5.24,0,0,1,155,14.8l0-7.32h4ZM155,19.77c0-2.28-1.41-3.86-3.45-3.87S148,17.49,148,19.74s1.41,3.86,3.5,3.87S154.95,22,155,19.77Z"/><path class="cls-2" d="M2.53,30a2,2,0,0,1-.67-.13h0l-.18-.06A2.86,2.86,0,0,1,0,27.57a1.41,1.41,0,0,1,0-.23c0-1,0-8.83,0-11.78A2.68,2.68,0,0,1,1.52,13.2a3.6,3.6,0,0,1,1.38-.3h0c4.43,0,18,0,20.17,0l.22,0a2.82,2.82,0,0,1,2.3,3.14,10.9,10.9,0,0,1-2.23,5.39,1.49,1.49,0,0,1-.2.29,10.24,10.24,0,0,1-4.22,3.1,1.82,1.82,0,0,1-.32.15,9.74,9.74,0,0,1-3.28.57,10,10,0,0,1-3.12-.5h0a10.25,10.25,0,0,1-3.88-2.42,5,5,0,0,1-.38-.39l-.1-.11-.07-.07a10,10,0,0,1-1-1.4,1.41,1.41,0,0,1-.2-.31l-.07-.15L6.34,20a3.53,3.53,0,0,1-.18-.38l0-.08a1.41,1.41,0,0,1,2.45-1.37,3.37,3.37,0,0,1,.16.33,1.41,1.41,0,0,1,.17.27l.07.15a1.41,1.41,0,0,1,.14.22,6.65,6.65,0,0,0,.78,1.07l.12.14.17.18.07.06a7.51,7.51,0,0,0,2.84,1.79,7,7,0,0,0,4.48,0,1.81,1.81,0,0,1,.31-.15,7.36,7.36,0,0,0,3-2.19,1.49,1.49,0,0,1,.16-.24,8,8,0,0,0,1.72-4.1c-2.11,0-15.45,0-19.88,0H2.85c0,2.88,0,10.51,0,11.43,5.78.06,22.78,0,25,0h0a.49.49,0,0,0,0-.09c0-1.55,0-16.46,0-16.46L15.27,3,15,2.86h0C13.22,4,4.55,9.47,2.18,11A1.41,1.41,0,1,1,.63,8.69C3,7.11,11.91,1.49,13.74.3a1.41,1.41,0,0,1,.38-.17,2.73,2.73,0,0,1,1.77,0h0a3.27,3.27,0,0,1,.59.32l.14.08.12.07c.2.13,10.72,6.44,11.43,6.89h0l.3.19a6.32,6.32,0,0,1,1.11.81l0,0a3.76,3.76,0,0,1,1,2h0a3.14,3.14,0,0,1,0,.53v16a3,3,0,0,1-.21,1.13,3.13,3.13,0,0,1-.87,1.19l-.08.07a2.19,2.19,0,0,1-.58.32h0l-.26.1h0A2.21,2.21,0,0,1,28,30C25.71,30,6,30,2.53,30Zm25.32-2.79h0Zm0,0h0ZM17.7,22.34h0Zm5.47-.66h0Zm0,0h0Zm-2.09-1.83h0Zm0,0h0Zm-15-.28h0ZM2.91,15.71h0Z"/><path class="cls-3" d="M2.84,15.72h0a0,0,0,0,1,0,0V27.17a0,0,0,0,1,0,0H0a0,0,0,0,1,0,0V18.55a2.83,2.83,0,0,1,2.83-2.83Z"/><path class="cls-4" d="M15.34,17.5h0a0,0,0,0,1,0,0V39.67a0,0,0,0,1,0,0H12.51a0,0,0,0,1,0,0V20.33A2.83,2.83,0,0,1,15.34,17.5Z" transform="translate(-14.66 42.51) rotate(-90)"/><path class="cls-5" d="M30.69,11.66h0a0,0,0,0,1,0,0V27.17a0,0,0,0,1,0,0H27.85a0,0,0,0,1,0,0V14.49A2.83,2.83,0,0,1,30.69,11.66Z" transform="translate(58.54 38.83) rotate(180)"/><path class="cls-6" d="M17.12.86,15.65,3.28l12.22,7.36v-.37A5.31,5.31,0,0,0,25.3,5.76Z"/><path class="cls-7" d="M2.33,7.59,3.81,10,15,2.85l-.33-.16A5.31,5.31,0,0,0,9.49,3Z"/><path class="cls-8" d="M22.6,15.71h0Z"/><path class="cls-9" d="M22.8,15.71q0,.14,0,.28,0-.14,0-.28Z"/><path class="cls-10" d="M22.58,16.86v0Z"/><polygon class="cls-11" points="25.34 17.42 25.34 17.42 25.34 17.42 25.34 17.42"/><path class="cls-12" d="M22.56,15.71h0Z"/><path class="cls-13" d="M22.6,15.71h0Z"/><path class="cls-14" d="M22.59,16.8q.1-.39.17-.8Q22.69,16.41,22.59,16.8Z"/><path class="cls-15" d="M22.79,15.7h0q0,.14,0,.28-.06.41-.17.8v.06a7.89,7.89,0,0,1-.86,2l-.15.24q-.15.24-.32.47l-.18.23a1.49,1.49,0,0,0-.14.2h0v0h0l-.08.08,0,0-.06.07,0,0a7.16,7.16,0,0,1-2.81,2,1.81,1.81,0,0,0-.31.15,7,7,0,0,1-4.48,0,7.51,7.51,0,0,1-2.84-1.79l-.07-.06L10,20.36l-.12-.14a6.65,6.65,0,0,1-.78-1.07A1.41,1.41,0,0,0,9,18.93l-.07-.15a1.41,1.41,0,0,0-.17-.27,3.37,3.37,0,0,0-.16-.33,1.41,1.41,0,0,0-2.45,1.37l0,.08a3.53,3.53,0,0,0,.18.38l.12.18.07.15a1.41,1.41,0,0,0,.2.31,10,10,0,0,0,1,1.4l.07.07.1.11a5,5,0,0,0,.38.39,10.25,10.25,0,0,0,3.88,2.42h0a10,10,0,0,0,3.12.5A9.74,9.74,0,0,0,18.63,25a1.81,1.81,0,0,0,.32-.15,10.24,10.24,0,0,0,4.22-3.1,1.49,1.49,0,0,0,.2-.29l.28-.38h0l.07-.1v0l.06-.09h0l.07-.1h0l.06-.09v0l.13-.2v0l.05-.09v0l.12-.2v0l.05-.09h0l.06-.1h0l0-.09v0l.11-.21v0l0-.09v0l.1-.21v0l0-.09h0l0-.11h0l0-.09v0l0-.11h0l0-.11v0l0-.09v0l0-.11h0l0-.11v0l0-.09v0l0-.11v0l0-.09v0l0-.1h0l0-.11v0l0-.09v0l0-.11h0A2.75,2.75,0,0,0,22.79,15.7Z"/><path class="cls-16" d="M22.8,15.7h0a8,8,0,0,1-1.72,4.1,1.49,1.49,0,0,0-.16.24l-.2.22a2.75,2.75,0,0,0,2.93.81,10.9,10.9,0,0,0,1.69-3.65A2.75,2.75,0,0,0,22.8,15.7Z"/></g></g></svg>